<?xml version="1.0" standalone="no"?>
<!DOCTYPE svg PUBLIC "-//W3C//DTD SVG 20010904//EN"
 "http://www.w3.org/TR/2001/REC-SVG-20010904/DTD/svg10.dtd">
<svg version="1.0" xmlns="http://www.w3.org/2000/svg"
 width="1225" height="719" viewBox="0 0 1225 719"
 preserveAspectRatio="xMidYMid meet">
<metadata>
Created by potrace 1.16, written by Peter Selinger 2001-2019
</metadata>
<g transform="translate(0.000000,719.000000) scale(0.100000,-0.100000)"
fill="#002a74" stroke="none">
<path d="M2935 7084 c-476 -36 -827 -129 -1190 -314 -747 -381 -1336 -1066
-1550 -1802 -73 -251 -100 -464 -92 -727 15 -495 158 -918 465 -1366 412 -604
1021 -1024 1767 -1220 462 -122 1023 -123 1515 -5 739 178 1397 631 2086 1435
164 192 349 426 602 765 818 1093 916 1222 1110 1460 218 266 439 489 623 629
389 294 852 436 1359 418 266 -10 473 -50 690 -134 248 -95 389 -191 618 -420
95 -94 194 -186 219 -202 117 -78 251 -96 355 -49 142 65 219 205 188 340 -16
69 -77 185 -140 270 -105 140 -310 312 -575 483 -124 81 -389 214 -515 259
-431 154 -991 192 -1475 100 -597 -114 -1168 -435 -1578 -889 -210 -232 -709
-878 -1302 -1685 -510 -695 -692 -921 -980 -1219 -406 -419 -801 -688 -1225
-833 -571 -195 -1209 -175 -1750 55 -659 280 -1132 831 -1264 1471 -45 218
-46 497 -2 711 105 506 427 998 870 1329 404 302 849 449 1356 449 372 0 692
-74 989 -229 159 -83 278 -172 458 -347 89 -86 189 -175 222 -196 171 -110
387 -57 467 115 79 169 9 381 -188 570 -133 129 -418 337 -608 446 -284 162
-631 270 -1000 312 -137 16 -434 27 -525 20 z M7090 5520 a 280 280 0 1 0 560 0 a 280 280 0 1 0 -560 0 z M6540 4730 a 210 210 0 1 0 420 0 a 210 210 0 1 0 -420 0 z M6070 3990 a 140 140 0 1 0 280 0 a 140 140 0 1 0 -280 0 z M5635 3350 a 65 65 0 1 0 130 0 a 65 65 0 1 0 -130 0 z M8880 4620 c-111 -8 -139 -15 -200 -45 -76 -39 -123 -106 -145 -210 -42 -200
90 -366 310 -392 39 -5 617 -6 1285 -3 1017 5 1219 3 1239 -8 22 -13 23 -18
17 -72 -10 -89 -52 -250 -91 -352 -183 -473 -611 -932 -1045 -1119 -190 -82
-359 -118 -590 -126 -556 -19 -1070 213 -1540 693 -202 207 -288 323 -470 639
-51 88 -112 185 -136 215 -82 104 -176 147 -302 138 -160 -12 -281 -123 -312
-286 -15 -83 7 -171 79 -307 162 -309 375 -591 665 -880 504 -502 1021 -785
1611 -882 137 -22 520 -25 665 -5 502 71 909 263 1315 621 290 256 548 608
690 941 178 417 270 998 198 1255 -24 85 -86 146 -178 174 -67 21 -75 21
-1519 19 -798 0 -1494 -4 -1546 -8 z M2451 4604 c-211 -30 -330 -158 -319 -341
11 -175 114 -271 323 -302 88 -14 2541 -13 2635 0 157 23 245 80 295 191 59
128 30 271 -75 369 -66 62 -119 77 -288 85 -264 11 -2489 10 -2571 -2 z M5654
1251 c-60 -37 -70 -129 -19 -180 21 -22 35 -26 80 -26 45 0 59 4 81 26 15 16
28 41 31 66 13 99 -88 166 -173 114 z M2490 635 l0 -595 90 0 90 0 0 254 c0
139 5 278 10 307 25 133 145 205 280 169 57 -15 124 -80 139 -135 7 -25 11
-145 11 -317 l0 -278 95 0 95 0 0 278 c0 157 -5 304 -11 338 -22 118 -108 225
-212 261 -83 29 -206 24 -284 -11 -34 -15 -72 -39 -84 -52 -12 -13 -26 -24
-31 -24 -4 0 -8 90 -8 200 l0 200 -90 0 -90 0 0 -595 z M8880 635 l0 -595 95 0
95 0 0 595 0 595 -95 0 -95 0 0 -595 z M10160 1154 c-98 -21 -203 -78 -276
-151 -216 -216 -216 -590 0 -806 220 -220 594 -221 811 -1 111 111 159 235
159 404 0 72 -6 124 -18 165 -86 289 -374 454 -676 389 z m292 -177 c149 -67
228 -219 215 -412 -10 -157 -79 -273 -202 -335 -65 -33 -73 -35 -174 -35 -94
0 -113 3 -162 26 -75 36 -130 87 -166 156 -43 82 -56 149 -51 258 4 76 11 105
35 157 72 154 187 222 364 214 66 -2 100 -9 141 -29 z M11298 1155 c-156 -39
-242 -133 -255 -275 -8 -84 11 -151 58 -204 63 -71 72 -75 353 -162 148 -45
200 -117 161 -220 -30 -79 -122 -117 -240 -100 -60 9 -120 62 -135 117 l-11
39 -98 0 -98 0 8 -49 c15 -99 80 -180 180 -225 166 -76 369 -54 492 53 102 90
129 274 56 384 -46 69 -104 101 -295 162 -142 46 -177 61 -206 89 -39 38 -50
78 -37 134 33 148 302 148 358 0 11 -28 11 -28 112 -28 l101 0 -7 33 c-24 109
-100 198 -203 237 -74 28 -215 35 -294 15 z M440 600 l0 -561 278 3 c263 3 280
5 336 27 69 28 139 88 168 145 29 58 35 150 13 217 -22 64 -107 156 -154 165
-37 8 -39 17 -7 32 42 19 108 85 127 127 28 60 25 166 -5 231 -28 61 -91 116
-165 146 -52 20 -76 22 -323 26 l-268 4 0 -562 z m517 387 c54 -29 78 -73 78
-142 -1 -72 -21 -107 -76 -136 -33 -16 -59 -19 -186 -19 l-148 0 3 161 3 161
147 -4 c115 -3 154 -7 179 -21 z m9 -476 c142 -65 128 -268 -23 -310 -21 -6
-100 -11 -175 -11 l-137 0 -3 170 -3 170 150 0 c124 0 157 -4 191 -19 z M1790
939 c-89 -11 -196 -66 -251 -127 -126 -142 -152 -367 -64 -549 72 -146 217
-233 390 -233 121 0 228 42 306 120 47 47 104 142 92 154 -4 3 -47 6 -97 6
l-91 0 -23 -36 c-45 -70 -171 -103 -273 -72 -74 22 -142 97 -160 176 l-7 32
340 0 340 0 -4 113 c-3 101 -7 119 -35 179 -85 180 -249 264 -463 237 z m179
-175 c70 -29 130 -111 131 -176 l0 -28 -240 0 -240 0 0 23 c0 38 49 124 88
153 69 53 174 64 261 28 z M3854 940 c-122 -17 -246 -109 -302 -223 -79 -161
-65 -370 35 -515 43 -63 92 -103 170 -140 51 -24 70 -27 158 -27 87 0 107 3
157 27 31 14 77 45 102 68 l46 43 0 -67 0 -67 90 3 90 3 0 440 0 440 -90 3
-90 3 0 -63 0 -62 -32 30 c-93 87 -206 122 -334 104 z m213 -181 c50 -24 98
-76 127 -138 31 -68 29 -207 -4 -275 -91 -187 -334 -210 -447 -42 -42 61 -53
103 -53 196 0 58 6 87 24 125 65 142 216 199 353 134 z M6392 939 c-245 -31
-410 -262 -373 -524 45 -323 376 -481 673 -323 245 130 299 500 105 714 -94
104 -243 153 -405 133 z m177 -175 c121 -50 189 -222 146 -370 -40 -138 -143
-212 -279 -202 -137 11 -220 103 -233 256 -14 170 63 298 201 333 40 10 120 2
165 -17 z M8065 938 c-156 -21 -286 -143 -331 -313 -8 -27 -14 -88 -14 -135 0
-47 6 -107 14 -135 63 -239 274 -369 501 -310 65 17 144 63 174 101 10 13 22
24 25 24 3 0 6 -29 6 -65 l0 -65 90 0 90 0 0 445 0 445 -90 0 -90 0 0 -60 c0
-33 -4 -60 -10 -60 -5 0 -10 4 -10 9 0 6 -25 28 -56 50 -89 64 -180 85 -299
69 z m210 -177 c96 -42 156 -144 157 -265 0 -136 -55 -235 -156 -282 -205 -96
-417 105 -367 348 37 178 205 269 366 199 z M7490 926 c-60 -16 -113 -49 -150
-94 l-30 -37 0 68 0 67 -90 0 -90 0 0 -445 0 -445 89 0 89 0 4 277 c3 273 3
279 28 328 31 62 80 91 167 101 l63 6 0 94 c0 106 3 103 -80 80 z M5620 485 l0
-445 90 0 90 0 0 445 0 445 -90 0 -90 0 0 -445 z M4589 873 c11 -27 86 -225
167 -441 l149 -392 109 2 110 3 151 395 c83 217 158 414 168 438 l17 42 -99 0
-98 0 -118 -342 c-65 -189 -121 -349 -125 -356 -4 -8 -60 141 -130 342 l-122
356 -99 0 -99 0 19 -47 z"/>
</g>
</svg>
